<svg xmlns="http://www.w3.org/2000/svg" width="213.42" height="69.36" viewBox="0 0 213.42 69.36"><path d="M8.5-35Q13-35,13-30.5V-13l9.25-9.75-3.75-1.5V-25H28v.75l-4,1.5-5.75,6L28-1.5l2.5.75V0H24a8.017,8.017,0,0,1-2.3-.3,6.023,6.023,0,0,1-1.8-.875,7.288,7.288,0,0,1-1.425-1.35A18.388,18.388,0,0,1,17.25-4.25L13-11v9.5l3,.75V0H2V-.75L5-1.5v-32l-3-.75V-35Zm30,0Q43-35,43-30.5v29l3,.75V0H32V-.75l3-.75v-32l-3-.75V-35Zm19,22.5q1.7,0,3-.075t2.2-.175A18.082,18.082,0,0,0,64.5-13q.1-.5.25-1.1.1-.55.175-1.225A12.917,12.917,0,0,0,65-16.75a17.209,17.209,0,0,0-.35-3.775A9.624,9.624,0,0,0,63.775-23a3.451,3.451,0,0,0-1.2-1.35,2.59,2.59,0,0,0-1.325-.4,2.3,2.3,0,0,0-1.325.475,3.92,3.92,0,0,0-1.2,1.8,17.339,17.339,0,0,0-.875,3.725A44.971,44.971,0,0,0,57.5-12.5ZM62.5.75q-6.4,0-9.95-3.525T49-12.5a16.02,16.02,0,0,1,.9-5.55,12.281,12.281,0,0,1,2.5-4.175,10.449,10.449,0,0,1,3.875-2.625,13.407,13.407,0,0,1,4.975-.9,14.786,14.786,0,0,1,5.025.8A11.708,11.708,0,0,1,70.05-22.8a9.2,9.2,0,0,1,2.375,3.175,9.3,9.3,0,0,1,.825,3.875,8.772,8.772,0,0,1-.075,1.225A9.236,9.236,0,0,1,73-13.6q-.15.5-.25.85-2.2.45-4.65.75-2.1.3-4.85.525t-5.75.225a24.963,24.963,0,0,0,.45,5.175,9.9,9.9,0,0,0,1.25,3.3,4.725,4.725,0,0,0,1.9,1.75A5.5,5.5,0,0,0,63.5-.5a7.3,7.3,0,0,0,2.825-.55,7.458,7.458,0,0,0,2.3-1.475,7.3,7.3,0,0,0,1.55-2.1A5.355,5.355,0,0,0,70.75-7H72a6.6,6.6,0,0,1-.675,2.9A7.6,7.6,0,0,1,69.4-1.625,9.762,9.762,0,0,1,66.4.1,11.131,11.131,0,0,1,62.5.75Zm36-23.5-3.75-1.5V-25H104v.75l-4,1.5L90.5.5H89l-12.5-24L74-24.25V-25h6.25a8.309,8.309,0,0,1,2.45.325,6.781,6.781,0,0,1,1.85.875,5.77,5.77,0,0,1,1.375,1.325A13.234,13.234,0,0,1,87-20.75L92.95-9.2Zm20-2a5.291,5.291,0,0,0-2.4.55,4.69,4.69,0,0,0-1.9,1.925,12,12,0,0,0-1.25,3.75,33.286,33.286,0,0,0-.45,6.025,31.758,31.758,0,0,0,.45,5.875A11.63,11.63,0,0,0,114.2-2.95a4.719,4.719,0,0,0,1.9,1.9,5.291,5.291,0,0,0,2.4.55,7.3,7.3,0,0,0,2.825-.55,7.458,7.458,0,0,0,2.3-1.475,7.3,7.3,0,0,0,1.55-2.1A5.355,5.355,0,0,0,125.75-7H127a6.6,6.6,0,0,1-.675,2.9A7.6,7.6,0,0,1,124.4-1.625,9.762,9.762,0,0,1,121.4.1a11.131,11.131,0,0,1-3.9.65q-6.4,0-9.95-3.525T104-12.5q0-6.2,3.55-9.725t9.95-3.525a16.2,16.2,0,0,1,4.2.475,9.389,9.389,0,0,1,2.875,1.25,5.1,5.1,0,0,1,1.65,1.75,4.217,4.217,0,0,1,.525,2.025,3.683,3.683,0,0,1-1.025,2.725A3.683,3.683,0,0,1,123-16.5q-.4,0-.775-.025a4.948,4.948,0,0,1-.625-.075,2.625,2.625,0,0,1-.6-.15v-7.5q-.3-.1-.7-.25a7.306,7.306,0,0,0-.8-.175A6.108,6.108,0,0,0,118.5-24.75ZM142.25.75a11.4,11.4,0,0,1-3.175-.4A11.742,11.742,0,0,1,136.7-.6,7.9,7.9,0,0,1,134.75-2a7.233,7.233,0,0,1-.875,1A5.718,5.718,0,0,1,133-.3a4.967,4.967,0,0,1-1,.55h-1.25v-8.5h2a14.15,14.15,0,0,0,1.9,3.9,11.485,11.485,0,0,0,2.6,2.65,6.479,6.479,0,0,0,4,1.2,4.369,4.369,0,0,0,3.175-1.05A3.935,3.935,0,0,0,145.5-4.5a3.164,3.164,0,0,0-1.075-2.4,13.966,13.966,0,0,0-2.675-1.9q-1.6-.9-3.5-1.825a23.923,23.923,0,0,1-3.5-2.075,11.543,11.543,0,0,1-2.675-2.65A6.1,6.1,0,0,1,131-19a6.1,6.1,0,0,1,.575-2.625,5.62,5.62,0,0,1,1.85-2.15,9.765,9.765,0,0,1,3.275-1.45,19.112,19.112,0,0,1,4.8-.525,8.5,8.5,0,0,1,2.75.425,10.782,10.782,0,0,1,2.15.975A11.434,11.434,0,0,1,148.3-23a6.176,6.176,0,0,1,.875-.975q.475-.425.875-.725.5-.3,1-.55h1.25v8.5h-2a17.922,17.922,0,0,0-1.85-3.85,12.42,12.42,0,0,0-2.4-2.675A5.314,5.314,0,0,0,142.5-24.5a3.081,3.081,0,0,0-2.275,1,3.438,3.438,0,0,0-.975,2.5,3.6,3.6,0,0,0,1.075,2.6A12.979,12.979,0,0,0,143-16.35q1.6.95,3.5,1.85a23.733,23.733,0,0,1,3.5,2.025,11.853,11.853,0,0,1,2.675,2.55A5.524,5.524,0,0,1,153.75-6.5a7.009,7.009,0,0,1-.6,2.925,5.787,5.787,0,0,1-1.95,2.3,10,10,0,0,1-3.55,1.5A23.664,23.664,0,0,1,142.25.75Zm28.5-1a3.109,3.109,0,0,0,1.7-.55,4.671,4.671,0,0,0,1.525-1.925,14.524,14.524,0,0,0,1.1-3.75A35.2,35.2,0,0,0,175.5-12.5a35.2,35.2,0,0,0-.425-6.025,14.524,14.524,0,0,0-1.1-3.75A4.671,4.671,0,0,0,172.45-24.2a3.109,3.109,0,0,0-1.7-.55,3.109,3.109,0,0,0-1.7.55,4.671,4.671,0,0,0-1.525,1.925,14.524,14.524,0,0,0-1.1,3.75A35.2,35.2,0,0,0,166-12.5a35.2,35.2,0,0,0,.425,6.025,14.524,14.524,0,0,0,1.1,3.75A4.671,4.671,0,0,0,169.05-.8,3.109,3.109,0,0,0,170.75-.25Zm0-25.5a16.02,16.02,0,0,1,5.55.9,11.347,11.347,0,0,1,4.175,2.625A11.347,11.347,0,0,1,183.1-18.05a16.02,16.02,0,0,1,.9,5.55,16.02,16.02,0,0,1-.9,5.55,11.347,11.347,0,0,1-2.625,4.175A11.347,11.347,0,0,1,176.3-.15a16.02,16.02,0,0,1-5.55.9,16.02,16.02,0,0,1-5.55-.9,11.347,11.347,0,0,1-4.175-2.625A11.347,11.347,0,0,1,158.4-6.95a16.02,16.02,0,0,1-.9-5.55,16.02,16.02,0,0,1,.9-5.55,11.347,11.347,0,0,1,2.625-4.175A11.347,11.347,0,0,1,165.2-24.85,16.02,16.02,0,0,1,170.75-25.75Zm30.5,25.5a3.109,3.109,0,0,0,1.7-.55,4.671,4.671,0,0,0,1.525-1.925,14.524,14.524,0,0,0,1.1-3.75A35.2,35.2,0,0,0,206-12.5a35.2,35.2,0,0,0-.425-6.025,14.524,14.524,0,0,0-1.1-3.75A4.671,4.671,0,0,0,202.95-24.2a3.109,3.109,0,0,0-1.7-.55,3.109,3.109,0,0,0-1.7.55,4.671,4.671,0,0,0-1.525,1.925,14.524,14.524,0,0,0-1.1,3.75A35.2,35.2,0,0,0,196.5-12.5a35.2,35.2,0,0,0,.425,6.025,14.524,14.524,0,0,0,1.1,3.75A4.671,4.671,0,0,0,199.55-.8,3.109,3.109,0,0,0,201.25-.25Zm0-25.5a16.02,16.02,0,0,1,5.55.9,11.347,11.347,0,0,1,4.175,2.625A11.347,11.347,0,0,1,213.6-18.05a16.02,16.02,0,0,1,.9,5.55,16.02,16.02,0,0,1-.9,5.55,11.347,11.347,0,0,1-2.625,4.175A11.347,11.347,0,0,1,206.8-.15a16.02,16.02,0,0,1-5.55.9,16.02,16.02,0,0,1-5.55-.9,11.347,11.347,0,0,1-4.175-2.625A11.347,11.347,0,0,1,188.9-6.95a16.02,16.02,0,0,1-.9-5.55,16.02,16.02,0,0,1,.9-5.55,11.347,11.347,0,0,1,2.625-4.175A11.347,11.347,0,0,1,195.7-24.85,16.02,16.02,0,0,1,201.25-25.75ZM8.664,16.84a4.586,4.586,0,0,1,1.548.252,7.578,7.578,0,0,1,1.212.54,5.269,5.269,0,0,1,1.056.768,3.827,3.827,0,0,1,.42-.564,5.176,5.176,0,0,1,.42-.42,4.367,4.367,0,0,1,.48-.336h.6v4.56h-.96a7.989,7.989,0,0,0-.936-2.088A5.857,5.857,0,0,0,11.16,18.1a3.2,3.2,0,0,0-2.04-.66,2.833,2.833,0,0,0-1.416.4A3.451,3.451,0,0,0,6.468,19.18,8.694,8.694,0,0,0,5.6,21.7a19.743,19.743,0,0,0-.324,3.9,19.021,19.021,0,0,0,.336,3.912,7.763,7.763,0,0,0,.936,2.508,3.528,3.528,0,0,0,1.416,1.344,3.96,3.96,0,0,0,1.752.4,3.85,3.85,0,0,0,1.656-.372,4.873,4.873,0,0,0,1.416-1.008,5.045,5.045,0,0,0,1-1.452A4.117,4.117,0,0,0,14.16,29.2h.6a4.754,4.754,0,0,1-.42,1.968,5.17,5.17,0,0,1-1.164,1.644,5.685,5.685,0,0,1-1.752,1.128,5.621,5.621,0,0,1-2.184.42,9.516,9.516,0,0,1-3.408-.576,6.824,6.824,0,0,1-2.568-1.692,7.5,7.5,0,0,1-1.62-2.748A11.441,11.441,0,0,1,1.08,25.6a11.669,11.669,0,0,1,.552-3.744,7.738,7.738,0,0,1,1.56-2.748,6.59,6.59,0,0,1,2.4-1.692A7.959,7.959,0,0,1,8.664,16.84Zm58.3.72V17.2H73.8v.36l-1.44.36v7.44h5.16V17.92l-1.44-.36V17.2h6.84v.36l-1.44.36V33.28l1.44.36V34H76.08v-.36l1.44-.36V25.96H72.36v7.32l1.44.36V34H66.96v-.36l1.44-.36V17.92Zm71.28,16.08V34H133.8v-.36l1.92-.72,6.6-15.96h.72l6.84,16.32,1.2.36V34H148.2a3.3,3.3,0,0,1-2.112-.612,3.547,3.547,0,0,1-1.1-1.428l-1.224-2.88h-5.736l-1.584,3.84Zm.024-5.16h5.256l-2.64-6.312ZM203.52,34v-.36l1.44-.36V17.8H202.2a4.768,4.768,0,0,1-.252,1.644,6.931,6.931,0,0,1-.54,1.164,3.626,3.626,0,0,1-.768.912h-.72V17.2h14.04v4.32h-.72a3.394,3.394,0,0,1-.792-.912,6.371,6.371,0,0,1-.528-1.164,4.986,4.986,0,0,1-.24-1.644h-2.76V33.28l1.44.36V34Z" transform="translate(-1.08 35)" fill="#fff"/></svg>