<svg xmlns="http://www.w3.org/2000/svg" width="204.06" height="69.273" viewBox="0 0 204.06 69.273"><defs><style>.a{fill:var(--colour-text);}</style></defs><path class="a" d="M-81.27-42l-4.5,21.12L-74.19-30h5.94l-12,8.34q.84-.12,1.23-.18a4.934,4.934,0,0,1,.75-.06,6.245,6.245,0,0,1,4.83,1.92,7.228,7.228,0,0,1,1.77,5.1,11.172,11.172,0,0,1-.06,1.17,9.882,9.882,0,0,1-.18,1.11l-.66,3q-.12.72-.21,1.2a4.3,4.3,0,0,0-.09.72A2.217,2.217,0,0,0-72.3-6a2.5,2.5,0,0,0,1.77.54,3.627,3.627,0,0,0,2.58-1.02,13.713,13.713,0,0,0,2.46-4.26h2.52a21.435,21.435,0,0,1-4.62,8.31A8.759,8.759,0,0,1-74.01.36a8.067,8.067,0,0,1-5.61-1.77,6.5,6.5,0,0,1-1.95-5.07,13.1,13.1,0,0,1,.09-1.5q.09-.78.27-1.62l.48-2.34a10.137,10.137,0,0,0,.18-1.08,10.333,10.333,0,0,0,.06-1.14,3.581,3.581,0,0,0-.54-2.16,1.9,1.9,0,0,0-1.62-.72,4.5,4.5,0,0,0-1.95.51,12.972,12.972,0,0,0-2.49,1.71L-90.21,0h-8.64l8.7-40.8Zm15.3,35.16a14.87,14.87,0,0,1,.12-1.77q.12-.99.36-2.13l6.42-30.06,8.88-1.2-6.9,32.4q-.12.54-.18.99a7.032,7.032,0,0,0-.06.93,2.2,2.2,0,0,0,.57,1.71,2.812,2.812,0,0,0,1.89.51,4.512,4.512,0,0,0,3.18-1.47,8.868,8.868,0,0,0,2.22-3.81h2.52a19.112,19.112,0,0,1-5.16,8.28A11,11,0,0,1-59.55.36a6.03,6.03,0,0,1-4.71-1.89A7.635,7.635,0,0,1-65.97-6.84Zm37.56-17.94a11.346,11.346,0,0,1-4.08,8.67,15.27,15.27,0,0,1-9.72,3.99l-.09,1.53q-.03.51-.03.87a6.266,6.266,0,0,0,.93,3.9q.93,1.14,3.39,1.14a10.68,10.68,0,0,0,5.19-1.29,21.7,21.7,0,0,0,5.43-4.77h2.04a26.691,26.691,0,0,1-7.56,8.37A15.745,15.745,0,0,1-41.85.36q-4.62,0-6.99-2.4t-2.37-7.14a26.85,26.85,0,0,1,1.08-7.26,27.924,27.924,0,0,1,2.88-6.84,15.714,15.714,0,0,1,5.31-5.43,13.341,13.341,0,0,1,6.93-1.83,7.458,7.458,0,0,1,4.95,1.41A5.412,5.412,0,0,1-28.41-24.78Zm-6.12-2.58q-2.04,0-4.11,3.63A29.063,29.063,0,0,0-41.73-15a8.743,8.743,0,0,0,6.09-3.21,9.871,9.871,0,0,0,2.61-6.69,3.723,3.723,0,0,0-.36-1.86A1.232,1.232,0,0,0-34.53-27.36ZM-8.79-24.9a1.8,1.8,0,0,1-1.56-.93,3.842,3.842,0,0,1-.6-2.13,2.993,2.993,0,0,1,.99-2.37,4,4,0,0,1,2.73-.87,3.216,3.216,0,0,1,2.82,1.38,6.647,6.647,0,0,1,.96,3.84A37.394,37.394,0,0,1-4.5-17.43,38.121,38.121,0,0,1-7.35-9.3a19.748,19.748,0,0,1-5.76,7.2A12.305,12.305,0,0,1-20.55.36a7.6,7.6,0,0,1-5.46-1.83,6.91,6.91,0,0,1-1.92-5.25,11.867,11.867,0,0,1,.09-1.41q.09-.75.21-1.47L-23.31-30h8.64L-18.99-9.6q-.12.66-.21,1.23a6.217,6.217,0,0,0-.09.93,1.99,1.99,0,0,0,.51,1.47,2.078,2.078,0,0,0,1.53.51,5.685,5.685,0,0,0,4.11-2.19,20.5,20.5,0,0,0,3.63-6.21,36.922,36.922,0,0,0,1.92-6.06,25.692,25.692,0,0,0,.72-5.58q-.12.24-.75.42A4.277,4.277,0,0,1-8.79-24.9Zm28.26-.12a5.274,5.274,0,0,1-.87,3.21,2.739,2.739,0,0,1-2.31,1.17,3.23,3.23,0,0,1-1.02-.18,4.543,4.543,0,0,1-1.08-.54,12.023,12.023,0,0,0,.54-1.86,8.6,8.6,0,0,0,.18-1.68,3.3,3.3,0,0,0-.42-1.83,1.413,1.413,0,0,0-1.26-.63q-2.64,0-5.16,6.09A30.239,30.239,0,0,0,5.55-9.72a6.266,6.266,0,0,0,.93,3.9q.93,1.14,3.39,1.14a10.68,10.68,0,0,0,5.19-1.29,21.7,21.7,0,0,0,5.43-4.77h2.04a26.691,26.691,0,0,1-7.56,8.37A15.745,15.745,0,0,1,6.03.36Q1.41.36-.96-2.04T-3.33-9.18a27.562,27.562,0,0,1,1.05-7.26A25.829,25.829,0,0,1,.63-23.28a15.714,15.714,0,0,1,5.31-5.43,13.228,13.228,0,0,1,6.87-1.83,7.584,7.584,0,0,1,4.98,1.41A5.063,5.063,0,0,1,19.47-25.02Zm19.86,15a11.567,11.567,0,0,1-.06,1.26,7.72,7.72,0,0,1-.18,1.02q1.2-.72,2.34-1.5a23.085,23.085,0,0,0,1.98-1.5h2.52a32.331,32.331,0,0,1-4.11,3.99,42.474,42.474,0,0,1-5.07,3.51A10.52,10.52,0,0,1,32.61-.57a15.128,15.128,0,0,1-5.28.93,9.046,9.046,0,0,1-6.39-2.19,7.161,7.161,0,0,1-2.37-5.49,6.562,6.562,0,0,1,.9-3.39,5.318,5.318,0,0,1,2.28-2.19,81.4,81.4,0,0,0,3.81-7.83q1.77-4.17,3.57-9.93l8.88-1.2q.18,4.5.42,8.22t.6,8.1q.18,2.52.24,3.54T39.33-10.02ZM29.49-24.18q-.78,2.46-1.89,5.13t-2.97,6.21a2.367,2.367,0,0,1,1.02.84,2.218,2.218,0,0,1,.36,1.26,3.03,3.03,0,0,1-.78,2.04,2.385,2.385,0,0,1-1.86.9,2.262,2.262,0,0,1-1.02-.21,1.282,1.282,0,0,1-.6-.57,4.814,4.814,0,0,0,.87,3.21,3.535,3.535,0,0,0,2.79.99,5.067,5.067,0,0,0,3.84-1.44,5.751,5.751,0,0,0,1.38-4.14q0-.84-.06-1.71t-.24-2.91q-.3-2.82-.48-4.98T29.49-24.18ZM43.05-9.24a26.177,26.177,0,0,1,1.11-7.26,26,26,0,0,1,3.03-6.84,15.76,15.76,0,0,1,5.34-5.37,13.5,13.5,0,0,1,6.96-1.83,6.933,6.933,0,0,1,5.76,2.4q1.92,2.4,1.92,7.2a1.071,1.071,0,0,0,.27.09,2.056,2.056,0,0,0,.39.03,12.435,12.435,0,0,0,4.44-1.02,23.062,23.062,0,0,0,4.8-2.58l.54,1.62a14.521,14.521,0,0,1-4.47,3.12,22.743,22.743,0,0,1-6.15,1.86q-.72,8.1-4.68,13.08A11.947,11.947,0,0,1,52.65.24q-4.68,0-7.14-2.4T43.05-9.24ZM59.97-26.88q-2.88,0-5.43,5.82a27.545,27.545,0,0,0-2.55,11.04,8.033,8.033,0,0,0,.63,3.84,2.63,2.63,0,0,0,2.43,1.02q2.22,0,4.23-3.6a25.1,25.1,0,0,0,2.73-8.88,1.815,1.815,0,0,1-1.23-.81,3.231,3.231,0,0,1-.39-1.71,3.924,3.924,0,0,1,.48-1.98,3.017,3.017,0,0,1,1.38-1.26,5.9,5.9,0,0,0-.63-2.7A1.825,1.825,0,0,0,59.97-26.88ZM69.39-9.24A26.177,26.177,0,0,1,70.5-16.5a26,26,0,0,1,3.03-6.84,15.76,15.76,0,0,1,5.34-5.37,13.5,13.5,0,0,1,6.96-1.83,6.933,6.933,0,0,1,5.76,2.4q1.92,2.4,1.92,7.2a1.071,1.071,0,0,0,.27.09,2.056,2.056,0,0,0,.39.03,12.435,12.435,0,0,0,4.44-1.02,23.062,23.062,0,0,0,4.8-2.58l.54,1.62a14.521,14.521,0,0,1-4.47,3.12,22.743,22.743,0,0,1-6.15,1.86q-.72,8.1-4.68,13.08A11.947,11.947,0,0,1,78.99.24q-4.68,0-7.14-2.4T69.39-9.24ZM86.31-26.88q-2.88,0-5.43,5.82a27.545,27.545,0,0,0-2.55,11.04,8.033,8.033,0,0,0,.63,3.84,2.63,2.63,0,0,0,2.43,1.02q2.22,0,4.23-3.6a25.1,25.1,0,0,0,2.73-8.88,1.815,1.815,0,0,1-1.23-.81,3.231,3.231,0,0,1-.39-1.71,3.924,3.924,0,0,1,.48-1.98,3.017,3.017,0,0,1,1.38-1.26,5.9,5.9,0,0,0-.63-2.7A1.825,1.825,0,0,0,86.31-26.88Z" transform="translate(98.85 42)"/><path class="a" d="M-85.9-6.316A7.324,7.324,0,0,1-88.23-1.442,7.639,7.639,0,0,1-93.446.273,7.015,7.015,0,0,1-99.1-2.256a10.176,10.176,0,0,1-2.126-6.768v-1.914a11.342,11.342,0,0,1,.991-4.881,7.4,7.4,0,0,1,2.81-3.233,7.823,7.823,0,0,1,4.211-1.128,7.193,7.193,0,0,1,5.086,1.771,7.412,7.412,0,0,1,2.229,4.9h-2.639a5.719,5.719,0,0,0-1.483-3.456,4.488,4.488,0,0,0-3.192-1.07,4.7,4.7,0,0,0-3.944,1.861,8.543,8.543,0,0,0-1.429,5.3v1.929a8.782,8.782,0,0,0,1.354,5.159,4.373,4.373,0,0,0,3.787,1.916,5.051,5.051,0,0,0,3.356-.991,5.5,5.5,0,0,0,1.552-3.452ZM-22.33,0h-2.639V-9.2H-35V0h-2.625V-19.906H-35v8.559h10.035v-8.559h2.639ZM38.258-5.209h-8.34L28.045,0H25.338l7.6-19.906h2.3L42.852,0H40.158ZM30.711-7.355h6.768l-3.391-9.311Zm71.5-10.4h-6.4V0H93.2V-17.76H86.815v-2.146H102.21Z" transform="translate(101.85 69)"/></svg>
